<?xml version="1.0" encoding="utf-8" standalone="no"?>
<!DOCTYPE svg PUBLIC "-//W3C//DTD SVG 1.1//EN"
  "http://www.w3.org/Graphics/SVG/1.1/DTD/svg11.dtd">
<!-- Created with matplotlib (https://matplotlib.org/) -->
<svg height="224.39952pt" version="1.1" viewBox="0 0 224.39952 224.39952" width="224.39952pt" xmlns="http://www.w3.org/2000/svg" xmlns:xlink="http://www.w3.org/1999/xlink">
 <defs>
  <style type="text/css">
*{stroke-linecap:butt;stroke-linejoin:round;}
  </style>
 </defs>
 <g id="figure_1">
  <g id="patch_1">
   <path d="M 0 224.39952 
L 224.39952 224.39952 
L 224.39952 -0 
L 0 -0 
z
" style="fill:#ffffff;"/>
  </g>
  <g id="axes_1">
   <g id="line2d_1">
    <path clip-path="url(#p9db42491ad)" d="M 160.494687 163.812969 
L 176.234612 147.497814 
" style="fill:none;stroke:#4682b4;stroke-linecap:square;stroke-opacity:0.3;stroke-width:3;"/>
   </g>
   <g id="line2d_2">
    <path clip-path="url(#p9db42491ad)" d="M 160.494687 163.812969 
L 179.500188 193.220973 
" style="fill:none;stroke:#4682b4;stroke-linecap:square;stroke-opacity:0.3;stroke-width:3;"/>
   </g>
   <g id="line2d_3">
    <path clip-path="url(#p9db42491ad)" d="M 84.592309 166.008685 
L 95.068624 151.402252 
" style="fill:none;stroke:#4682b4;stroke-linecap:square;stroke-opacity:0.3;stroke-width:3;"/>
   </g>
   <g id="line2d_4">
    <path clip-path="url(#p9db42491ad)" d="M 72.291039 168.569223 
L 84.592309 166.008685 
" style="fill:none;stroke:#4682b4;stroke-linecap:square;stroke-opacity:0.3;stroke-width:3;"/>
   </g>
   <g id="line2d_5">
    <path clip-path="url(#p9db42491ad)" d="M 49.620354 165.012638 
L 61.82745 169.957241 
" style="fill:none;stroke:#4682b4;stroke-linecap:square;stroke-opacity:0.3;stroke-width:3;"/>
   </g>
   <g id="line2d_6">
    <path clip-path="url(#p9db42491ad)" d="M 43.733154 146.84962 
L 49.620354 165.012638 
" style="fill:none;stroke:#4682b4;stroke-linecap:square;stroke-opacity:0.3;stroke-width:3;"/>
   </g>
   <g id="line2d_7">
    <path clip-path="url(#p9db42491ad)" d="M 15.51888 86.633717 
L 57.123798 69.877382 
" style="fill:none;stroke:#4682b4;stroke-linecap:square;stroke-opacity:0.3;stroke-width:3;"/>
   </g>
   <g id="line2d_8">
    <path clip-path="url(#p9db42491ad)" d="M 153.314491 31.583007 
L 204.176542 47.6623 
" style="fill:none;stroke:#4682b4;stroke-linecap:square;stroke-opacity:0.3;stroke-width:3;"/>
   </g>
   <g id="line2d_9">
    <path clip-path="url(#p9db42491ad)" d="M 113.890866 125.691672 
L 176.234612 147.497814 
" style="fill:none;stroke:#4682b4;stroke-linecap:square;stroke-opacity:0.3;stroke-width:3;"/>
   </g>
   <g id="line2d_10">
    <path clip-path="url(#p9db42491ad)" d="M 87.277565 137.637454 
L 113.890866 125.691672 
" style="fill:none;stroke:#4682b4;stroke-linecap:square;stroke-opacity:0.3;stroke-width:3;"/>
   </g>
   <g id="line2d_11">
    <path clip-path="url(#p9db42491ad)" d="M 44.341473 125.759546 
L 78.290231 117.382227 
" style="fill:none;stroke:#4682b4;stroke-linecap:square;stroke-opacity:0.3;stroke-width:3;"/>
   </g>
   <g id="line2d_12">
    <path clip-path="url(#p9db42491ad)" d="M 78.290231 117.382227 
L 100.166792 100.875328 
" style="fill:none;stroke:#4682b4;stroke-linecap:square;stroke-opacity:0.3;stroke-width:3;"/>
   </g>
   <g id="line2d_13">
    <path clip-path="url(#p9db42491ad)" d="M 43.733154 146.84962 
L 44.341473 125.759546 
" style="fill:none;stroke:#4682b4;stroke-linecap:square;stroke-opacity:0.3;stroke-width:3;"/>
   </g>
   <g id="line2d_14">
    <path clip-path="url(#p9db42491ad)" d="M 61.82745 169.957241 
L 72.291039 168.569223 
" style="fill:none;stroke:#4682b4;stroke-linecap:square;stroke-opacity:0.3;stroke-width:3;"/>
   </g>
   <g id="line2d_15">
    <path clip-path="url(#p9db42491ad)" d="M 180.207772 95.187507 
L 180.587017 143.671431 
" style="fill:none;stroke:#4682b4;stroke-linecap:square;stroke-opacity:0.3;stroke-width:3;"/>
   </g>
   <g id="line2d_16">
    <path clip-path="url(#p9db42491ad)" d="M 176.234612 147.497814 
L 180.587017 143.671431 
" style="fill:none;stroke:#4682b4;stroke-linecap:square;stroke-opacity:0.3;stroke-width:3;"/>
   </g>
   <g id="line2d_17">
    <path clip-path="url(#p9db42491ad)" d="M 134.59406 82.467965 
L 180.207772 95.187507 
" style="fill:none;stroke:#4682b4;stroke-linecap:square;stroke-opacity:0.3;stroke-width:3;"/>
   </g>
   <g id="line2d_18">
    <path clip-path="url(#p9db42491ad)" d="M 180.207772 95.187507 
L 204.176542 47.6623 
" style="fill:none;stroke:#4682b4;stroke-linecap:square;stroke-opacity:0.3;stroke-width:3;"/>
   </g>
   <g id="line2d_19">
    <path clip-path="url(#p9db42491ad)" d="M 57.123798 69.877382 
L 100.166792 100.875328 
" style="fill:none;stroke:#4682b4;stroke-linecap:square;stroke-opacity:0.3;stroke-width:3;"/>
   </g>
   <g id="line2d_20">
    <path clip-path="url(#p9db42491ad)" d="M 100.166792 100.875328 
L 134.59406 82.467965 
" style="fill:none;stroke:#4682b4;stroke-linecap:square;stroke-opacity:0.3;stroke-width:3;"/>
   </g>
   <g id="line2d_21">
    <path clip-path="url(#p9db42491ad)" d="M 87.277565 137.637454 
L 95.068624 151.402252 
" style="fill:none;stroke:#4682b4;stroke-linecap:square;stroke-opacity:0.3;stroke-width:3;"/>
   </g>
   <g id="PathCollection_1">
    <path clip-path="url(#p9db42491ad)" d="M 160.494687 168.018227 
C 161.609934 168.018227 162.679654 167.575135 163.468253 166.786536 
C 164.256852 165.997937 164.699945 164.928217 164.699945 163.812969 
C 164.699945 162.697722 164.256852 161.628002 163.468253 160.839403 
C 162.679654 160.050804 161.609934 159.607711 160.494687 159.607711 
C 159.379439 159.607711 158.30972 160.050804 157.52112 160.839403 
C 156.732521 161.628002 156.289429 162.697722 156.289429 163.812969 
C 156.289429 164.928217 156.732521 165.997937 157.52112 166.786536 
C 158.30972 167.575135 159.379439 168.018227 160.494687 168.018227 
z
" style="fill:#4682b4;stroke:#4682b4;"/>
    <path clip-path="url(#p9db42491ad)" d="M 84.592309 170.681878 
C 85.831654 170.681878 87.020406 170.189481 87.896755 169.313132 
C 88.773105 168.436782 89.265502 167.248031 89.265502 166.008685 
C 89.265502 164.76934 88.773105 163.580589 87.896755 162.704239 
C 87.020406 161.82789 85.831654 161.335493 84.592309 161.335493 
C 83.352964 161.335493 82.164212 161.82789 81.287863 162.704239 
C 80.411514 163.580589 79.919117 164.76934 79.919117 166.008685 
C 79.919117 167.248031 80.411514 168.436782 81.287863 169.313132 
C 82.164212 170.189481 83.352964 170.681878 84.592309 170.681878 
z
" style="fill:#4682b4;stroke:#4682b4;"/>
    <path clip-path="url(#p9db42491ad)" d="M 49.620354 167.67062 
C 50.325259 167.67062 51.001388 167.390558 51.499831 166.892115 
C 51.998275 166.393672 52.278336 165.717543 52.278336 165.012638 
C 52.278336 164.307733 51.998275 163.631604 51.499831 163.133161 
C 51.001388 162.634718 50.325259 162.354656 49.620354 162.354656 
C 48.915449 162.354656 48.23932 162.634718 47.740877 163.133161 
C 47.242434 163.631604 46.962372 164.307733 46.962372 165.012638 
C 46.962372 165.717543 47.242434 166.393672 47.740877 166.892115 
C 48.23932 167.390558 48.915449 167.67062 49.620354 167.67062 
z
" style="fill:#4682b4;stroke:#4682b4;"/>
    <path clip-path="url(#p9db42491ad)" d="M 15.51888 88.442342 
C 15.998533 88.442342 16.458606 88.251774 16.797771 87.912608 
C 17.136937 87.573442 17.327505 87.11337 17.327505 86.633717 
C 17.327505 86.154064 17.136937 85.693991 16.797771 85.354825 
C 16.458606 85.01566 15.998533 84.825091 15.51888 84.825091 
C 15.039227 84.825091 14.579155 85.01566 14.239989 85.354825 
C 13.900823 85.693991 13.710255 86.154064 13.710255 86.633717 
C 13.710255 87.11337 13.900823 87.573442 14.239989 87.912608 
C 14.579155 88.251774 15.039227 88.442342 15.51888 88.442342 
z
" style="fill:#4682b4;stroke:#4682b4;"/>
    <path clip-path="url(#p9db42491ad)" d="M 153.314491 33.273417 
C 153.762794 33.273417 154.192795 33.095305 154.509792 32.778307 
C 154.82679 32.46131 155.004902 32.031309 155.004902 31.583007 
C 155.004902 31.134704 154.82679 30.704703 154.509792 30.387706 
C 154.192795 30.070708 153.762794 29.892596 153.314491 29.892596 
C 152.866189 29.892596 152.436188 30.070708 152.119191 30.387706 
C 151.802193 30.704703 151.624081 31.134704 151.624081 31.583007 
C 151.624081 32.031309 151.802193 32.46131 152.119191 32.778307 
C 152.436188 33.095305 152.866189 33.273417 153.314491 33.273417 
z
" style="fill:#4682b4;stroke:#4682b4;"/>
    <path clip-path="url(#p9db42491ad)" d="M 113.890866 128.937643 
C 114.751708 128.937643 115.577408 128.595627 116.186115 127.98692 
C 116.794822 127.378213 117.136838 126.552514 117.136838 125.691672 
C 117.136838 124.83083 116.794822 124.00513 116.186115 123.396423 
C 115.577408 122.787716 114.751708 122.4457 113.890866 122.4457 
C 113.030025 122.4457 112.204325 122.787716 111.595618 123.396423 
C 110.986911 124.00513 110.644895 124.83083 110.644895 125.691672 
C 110.644895 126.552514 110.986911 127.378213 111.595618 127.98692 
C 112.204325 128.595627 113.030025 128.937643 113.890866 128.937643 
z
" style="fill:#4682b4;stroke:#4682b4;"/>
    <path clip-path="url(#p9db42491ad)" d="M 78.290231 118.876345 
C 78.686475 118.876345 79.066544 118.718915 79.346732 118.438728 
C 79.626919 118.158541 79.784349 117.778472 79.784349 117.382227 
C 79.784349 116.985982 79.626919 116.605913 79.346732 116.325726 
C 79.066544 116.045538 78.686475 115.888108 78.290231 115.888108 
C 77.893986 115.888108 77.513917 116.045538 77.233729 116.325726 
C 76.953542 116.605913 76.796112 116.985982 76.796112 117.382227 
C 76.796112 117.778472 76.953542 118.158541 77.233729 118.438728 
C 77.513917 118.718915 77.893986 118.876345 78.290231 118.876345 
z
" style="fill:#4682b4;stroke:#4682b4;"/>
    <path clip-path="url(#p9db42491ad)" d="M 44.341473 127.594944 
C 44.828226 127.594944 45.295109 127.401555 45.639295 127.057368 
C 45.983482 126.713182 46.176871 126.246299 46.176871 125.759546 
C 46.176871 125.272792 45.983482 124.80591 45.639295 124.461723 
C 45.295109 124.117536 44.828226 123.924147 44.341473 123.924147 
C 43.854719 123.924147 43.387836 124.117536 43.04365 124.461723 
C 42.699463 124.80591 42.506074 125.272792 42.506074 125.759546 
C 42.506074 126.246299 42.699463 126.713182 43.04365 127.057368 
C 43.387836 127.401555 43.854719 127.594944 44.341473 127.594944 
z
" style="fill:#4682b4;stroke:#4682b4;"/>
    <path clip-path="url(#p9db42491ad)" d="M 43.733154 148.926147 
C 44.283855 148.926147 44.812076 148.707351 45.20148 148.317946 
C 45.590885 147.928542 45.809681 147.400321 45.809681 146.84962 
C 45.809681 146.298918 45.590885 145.770698 45.20148 145.381293 
C 44.812076 144.991889 44.283855 144.773093 43.733154 144.773093 
C 43.182453 144.773093 42.654232 144.991889 42.264828 145.381293 
C 41.875423 145.770698 41.656627 146.298918 41.656627 146.84962 
C 41.656627 147.400321 41.875423 147.928542 42.264828 148.317946 
C 42.654232 148.707351 43.182453 148.926147 43.733154 148.926147 
z
" style="fill:#4682b4;stroke:#4682b4;"/>
    <path clip-path="url(#p9db42491ad)" d="M 72.291039 171.48074 
C 73.063182 171.48074 73.803804 171.173964 74.349792 170.627976 
C 74.89578 170.081989 75.202555 169.341366 75.202555 168.569223 
C 75.202555 167.79708 74.89578 167.056458 74.349792 166.51047 
C 73.803804 165.964482 73.063182 165.657706 72.291039 165.657706 
C 71.518895 165.657706 70.778273 165.964482 70.232285 166.51047 
C 69.686298 167.056458 69.379522 167.79708 69.379522 168.569223 
C 69.379522 169.341366 69.686298 170.081989 70.232285 170.627976 
C 70.778273 171.173964 71.518895 171.48074 72.291039 171.48074 
z
" style="fill:#4682b4;stroke:#4682b4;"/>
    <path clip-path="url(#p9db42491ad)" d="M 180.587017 146.814144 
C 181.420474 146.814144 182.219907 146.483008 182.80925 145.893665 
C 183.398594 145.304321 183.72973 144.504888 183.72973 143.671431 
C 183.72973 142.837974 183.398594 142.038541 182.80925 141.449197 
C 182.219907 140.859854 181.420474 140.528718 180.587017 140.528718 
C 179.753559 140.528718 178.954126 140.859854 178.364783 141.449197 
C 177.77544 142.038541 177.444304 142.837974 177.444304 143.671431 
C 177.444304 144.504888 177.77544 145.304321 178.364783 145.893665 
C 178.954126 146.483008 179.753559 146.814144 180.587017 146.814144 
z
" style="fill:#4682b4;stroke:#4682b4;"/>
    <path clip-path="url(#p9db42491ad)" d="M 179.500188 194.800896 
C 179.919189 194.800896 180.321084 194.634425 180.617362 194.338147 
C 180.91364 194.041869 181.080111 193.639973 181.080111 193.220973 
C 181.080111 192.801972 180.91364 192.400077 180.617362 192.103799 
C 180.321084 191.807521 179.919189 191.64105 179.500188 191.64105 
C 179.081188 191.64105 178.679292 191.807521 178.383014 192.103799 
C 178.086736 192.400077 177.920265 192.801972 177.920265 193.220973 
C 177.920265 193.639973 178.086736 194.041869 178.383014 194.338147 
C 178.679292 194.634425 179.081188 194.800896 179.500188 194.800896 
z
" style="fill:#4682b4;stroke:#4682b4;"/>
    <path clip-path="url(#p9db42491ad)" d="M 180.207772 98.881573 
C 181.18745 98.881573 182.127134 98.492343 182.819871 97.799606 
C 183.512608 97.10687 183.901838 96.167185 183.901838 95.187507 
C 183.901838 94.207829 183.512608 93.268145 182.819871 92.575408 
C 182.127134 91.882671 181.18745 91.493441 180.207772 91.493441 
C 179.228094 91.493441 178.28841 91.882671 177.595673 92.575408 
C 176.902936 93.268145 176.513706 94.207829 176.513706 95.187507 
C 176.513706 96.167185 176.902936 97.10687 177.595673 97.799606 
C 178.28841 98.492343 179.228094 98.881573 180.207772 98.881573 
z
" style="fill:#4682b4;stroke:#4682b4;"/>
    <path clip-path="url(#p9db42491ad)" d="M 176.234612 149.92434 
C 176.878134 149.92434 177.495386 149.668665 177.950424 149.213627 
C 178.405463 148.758588 178.661137 148.141336 178.661137 147.497814 
C 178.661137 146.854292 178.405463 146.237041 177.950424 145.782002 
C 177.495386 145.326963 176.878134 145.071289 176.234612 145.071289 
C 175.59109 145.071289 174.973838 145.326963 174.518799 145.782002 
C 174.063761 146.237041 173.808087 146.854292 173.808087 147.497814 
C 173.808087 148.141336 174.063761 148.758588 174.518799 149.213627 
C 174.973838 149.668665 175.59109 149.92434 176.234612 149.92434 
z
" style="fill:#4682b4;stroke:#4682b4;"/>
    <path clip-path="url(#p9db42491ad)" d="M 100.166792 103.514332 
C 100.866664 103.514332 101.537965 103.23627 102.03285 102.741386 
C 102.527734 102.246502 102.805796 101.5752 102.805796 100.875328 
C 102.805796 100.175456 102.527734 99.504155 102.03285 99.009271 
C 101.537965 98.514386 100.866664 98.236324 100.166792 98.236324 
C 99.46692 98.236324 98.795618 98.514386 98.300734 99.009271 
C 97.80585 99.504155 97.527788 100.175456 97.527788 100.875328 
C 97.527788 101.5752 97.80585 102.246502 98.300734 102.741386 
C 98.795618 103.23627 99.46692 103.514332 100.166792 103.514332 
z
" style="fill:#4682b4;stroke:#4682b4;"/>
    <path clip-path="url(#p9db42491ad)" d="M 134.59406 85.685443 
C 135.447345 85.685443 136.265797 85.346429 136.869161 84.743065 
C 137.472524 84.139702 137.811538 83.32125 137.811538 82.467965 
C 137.811538 81.614679 137.472524 80.796228 136.869161 80.192864 
C 136.265797 79.5895 135.447345 79.250486 134.59406 79.250486 
C 133.740775 79.250486 132.922323 79.5895 132.318959 80.192864 
C 131.715595 80.796228 131.376582 81.614679 131.376582 82.467965 
C 131.376582 83.32125 131.715595 84.139702 132.318959 84.743065 
C 132.922323 85.346429 133.740775 85.685443 134.59406 85.685443 
z
" style="fill:#4682b4;stroke:#4682b4;"/>
    <path clip-path="url(#p9db42491ad)" d="M 61.82745 172.265512 
C 62.43961 172.265512 63.026781 172.022298 63.459644 171.589435 
C 63.892506 171.156572 64.13572 170.569402 64.13572 169.957241 
C 64.13572 169.345081 63.892506 168.757911 63.459644 168.325048 
C 63.026781 167.892185 62.43961 167.648971 61.82745 167.648971 
C 61.21529 167.648971 60.628119 167.892185 60.195256 168.325048 
C 59.762394 168.757911 59.51918 169.345081 59.51918 169.957241 
C 59.51918 170.569402 59.762394 171.156572 60.195256 171.589435 
C 60.628119 172.022298 61.21529 172.265512 61.82745 172.265512 
z
" style="fill:#4682b4;stroke:#4682b4;"/>
    <path clip-path="url(#p9db42491ad)" d="M 95.068624 154.453947 
C 95.877943 154.453947 96.654223 154.132401 97.226498 153.560126 
C 97.798773 152.987851 98.120319 152.211571 98.120319 151.402252 
C 98.120319 150.592933 97.798773 149.816653 97.226498 149.244378 
C 96.654223 148.672103 95.877943 148.350557 95.068624 148.350557 
C 94.259305 148.350557 93.483025 148.672103 92.91075 149.244378 
C 92.338475 149.816653 92.016929 150.592933 92.016929 151.402252 
C 92.016929 152.211571 92.338475 152.987851 92.91075 153.560126 
C 93.483025 154.132401 94.259305 154.453947 95.068624 154.453947 
z
" style="fill:#4682b4;stroke:#4682b4;"/>
    <path clip-path="url(#p9db42491ad)" d="M 204.176542 50.296951 
C 204.875259 50.296951 205.545453 50.019347 206.039521 49.525279 
C 206.533589 49.031212 206.811192 48.361018 206.811192 47.6623 
C 206.811192 46.963583 206.533589 46.293389 206.039521 45.799321 
C 205.545453 45.305253 204.875259 45.02765 204.176542 45.02765 
C 203.477825 45.02765 202.807631 45.305253 202.313563 45.799321 
C 201.819495 46.293389 201.541892 46.963583 201.541892 47.6623 
C 201.541892 48.361018 201.819495 49.031212 202.313563 49.525279 
C 202.807631 50.019347 203.477825 50.296951 204.176542 50.296951 
z
" style="fill:#4682b4;stroke:#4682b4;"/>
    <path clip-path="url(#p9db42491ad)" d="M 57.123798 72.192446 
C 57.737761 72.192446 58.326659 71.948516 58.760796 71.51438 
C 59.194933 71.080243 59.438863 70.491344 59.438863 69.877382 
C 59.438863 69.26342 59.194933 68.674521 58.760796 68.240385 
C 58.326659 67.806248 57.737761 67.562318 57.123798 67.562318 
C 56.509836 67.562318 55.920938 67.806248 55.486801 68.240385 
C 55.052664 68.674521 54.808734 69.26342 54.808734 69.877382 
C 54.808734 70.491344 55.052664 71.080243 55.486801 71.51438 
C 55.920938 71.948516 56.509836 72.192446 57.123798 72.192446 
z
" style="fill:#4682b4;stroke:#4682b4;"/>
    <path clip-path="url(#p9db42491ad)" d="M 87.277565 140.303259 
C 87.984545 140.303259 88.662664 140.022373 89.162574 139.522463 
C 89.662484 139.022552 89.94337 138.344434 89.94337 137.637454 
C 89.94337 136.930474 89.662484 136.252355 89.162574 135.752445 
C 88.662664 135.252534 87.984545 134.971648 87.277565 134.971648 
C 86.570585 134.971648 85.892466 135.252534 85.392556 135.752445 
C 84.892646 136.252355 84.61176 136.930474 84.61176 137.637454 
C 84.61176 138.344434 84.892646 139.022552 85.392556 139.522463 
C 85.892466 140.022373 86.570585 140.303259 87.277565 140.303259 
z
" style="fill:#4682b4;stroke:#4682b4;"/>
   </g>
  </g>
 </g>
 <defs>
  <clipPath id="p9db42491ad">
   <rect height="209.99952" width="209.99952" x="7.2" y="7.2"/>
  </clipPath>
 </defs>
</svg>
