<?xml version="1.0" encoding="utf-8" standalone="no"?>
<!DOCTYPE svg PUBLIC "-//W3C//DTD SVG 1.1//EN"
  "http://www.w3.org/Graphics/SVG/1.1/DTD/svg11.dtd">
<!-- Created with matplotlib (https://matplotlib.org/) -->
<svg height="224.39952pt" version="1.1" viewBox="0 0 224.39952 224.39952" width="224.39952pt" xmlns="http://www.w3.org/2000/svg" xmlns:xlink="http://www.w3.org/1999/xlink">
 <defs>
  <style type="text/css">
*{stroke-linecap:butt;stroke-linejoin:round;}
  </style>
 </defs>
 <g id="figure_1">
  <g id="patch_1">
   <path d="M 0 224.39952 
L 224.39952 224.39952 
L 224.39952 -0 
L 0 -0 
z
" style="fill:#ffffff;"/>
  </g>
  <g id="axes_1">
   <g id="line2d_1">
    <path clip-path="url(#p49a7a7abbd)" d="M 87.277565 137.637454 
L 95.068624 151.402252 
" style="fill:none;stroke:#4682b4;stroke-linecap:square;stroke-opacity:0.3;stroke-width:3;"/>
   </g>
   <g id="line2d_2">
    <path clip-path="url(#p49a7a7abbd)" d="M 84.592309 166.008685 
L 95.068624 151.402252 
" style="fill:none;stroke:#4682b4;stroke-linecap:square;stroke-opacity:0.3;stroke-width:3;"/>
   </g>
   <g id="line2d_3">
    <path clip-path="url(#p49a7a7abbd)" d="M 87.277565 137.637454 
L 113.890866 125.691672 
" style="fill:none;stroke:#4682b4;stroke-linecap:square;stroke-opacity:0.3;stroke-width:3;"/>
   </g>
   <g id="line2d_4">
    <path clip-path="url(#p49a7a7abbd)" d="M 72.291039 168.569223 
L 84.592309 166.008685 
" style="fill:none;stroke:#4682b4;stroke-linecap:square;stroke-opacity:0.3;stroke-width:3;"/>
   </g>
   <g id="line2d_5">
    <path clip-path="url(#p49a7a7abbd)" d="M 44.341473 125.759546 
L 59.327999 111.38049 
" style="fill:none;stroke:#4682b4;stroke-linecap:square;stroke-opacity:0.3;stroke-width:3;"/>
   </g>
   <g id="line2d_6">
    <path clip-path="url(#p49a7a7abbd)" d="M 59.327999 111.38049 
L 77.429931 105.404205 
" style="fill:none;stroke:#4682b4;stroke-linecap:square;stroke-opacity:0.3;stroke-width:3;"/>
   </g>
   <g id="line2d_7">
    <path clip-path="url(#p49a7a7abbd)" d="M 43.733154 146.84962 
L 44.341473 125.759546 
" style="fill:none;stroke:#4682b4;stroke-linecap:square;stroke-opacity:0.3;stroke-width:3;"/>
   </g>
   <g id="line2d_8">
    <path clip-path="url(#p49a7a7abbd)" d="M 77.429931 105.404205 
L 100.166792 100.875328 
" style="fill:none;stroke:#4682b4;stroke-linecap:square;stroke-opacity:0.3;stroke-width:3;"/>
   </g>
   <g id="line2d_9">
    <path clip-path="url(#p49a7a7abbd)" d="M 43.733154 146.84962 
L 49.620354 165.012638 
" style="fill:none;stroke:#4682b4;stroke-linecap:square;stroke-opacity:0.3;stroke-width:3;"/>
   </g>
   <g id="line2d_10">
    <path clip-path="url(#p49a7a7abbd)" d="M 49.620354 165.012638 
L 61.82745 169.957241 
" style="fill:none;stroke:#4682b4;stroke-linecap:square;stroke-opacity:0.3;stroke-width:3;"/>
   </g>
   <g id="line2d_11">
    <path clip-path="url(#p49a7a7abbd)" d="M 61.82745 169.957241 
L 72.291039 168.569223 
" style="fill:none;stroke:#4682b4;stroke-linecap:square;stroke-opacity:0.3;stroke-width:3;"/>
   </g>
   <g id="PathCollection_1">
    <path clip-path="url(#p49a7a7abbd)" d="M 95.068624 154.453947 
C 95.877943 154.453947 96.654223 154.132401 97.226498 153.560126 
C 97.798773 152.987851 98.120319 152.211571 98.120319 151.402252 
C 98.120319 150.592933 97.798773 149.816653 97.226498 149.244378 
C 96.654223 148.672103 95.877943 148.350557 95.068624 148.350557 
C 94.259305 148.350557 93.483025 148.672103 92.91075 149.244378 
C 92.338475 149.816653 92.016929 150.592933 92.016929 151.402252 
C 92.016929 152.211571 92.338475 152.987851 92.91075 153.560126 
C 93.483025 154.132401 94.259305 154.453947 95.068624 154.453947 
z
" style="fill:#4682b4;stroke:#4682b4;"/>
    <path clip-path="url(#p49a7a7abbd)" d="M 113.890866 128.937643 
C 114.751708 128.937643 115.577408 128.595627 116.186115 127.98692 
C 116.794822 127.378213 117.136838 126.552514 117.136838 125.691672 
C 117.136838 124.83083 116.794822 124.00513 116.186115 123.396423 
C 115.577408 122.787716 114.751708 122.4457 113.890866 122.4457 
C 113.030025 122.4457 112.204325 122.787716 111.595618 123.396423 
C 110.986911 124.00513 110.644895 124.83083 110.644895 125.691672 
C 110.644895 126.552514 110.986911 127.378213 111.595618 127.98692 
C 112.204325 128.595627 113.030025 128.937643 113.890866 128.937643 
z
" style="fill:#4682b4;stroke:#4682b4;"/>
    <path clip-path="url(#p49a7a7abbd)" d="M 84.592309 170.681878 
C 85.831654 170.681878 87.020406 170.189481 87.896755 169.313132 
C 88.773105 168.436782 89.265502 167.248031 89.265502 166.008685 
C 89.265502 164.76934 88.773105 163.580589 87.896755 162.704239 
C 87.020406 161.82789 85.831654 161.335493 84.592309 161.335493 
C 83.352964 161.335493 82.164212 161.82789 81.287863 162.704239 
C 80.411514 163.580589 79.919117 164.76934 79.919117 166.008685 
C 79.919117 167.248031 80.411514 168.436782 81.287863 169.313132 
C 82.164212 170.189481 83.352964 170.681878 84.592309 170.681878 
z
" style="fill:#4682b4;stroke:#4682b4;"/>
    <path clip-path="url(#p49a7a7abbd)" d="M 59.327999 113.563399 
C 59.906913 113.563399 60.462195 113.333394 60.871549 112.92404 
C 61.280903 112.514686 61.510909 111.959404 61.510909 111.38049 
C 61.510909 110.801575 61.280903 110.246294 60.871549 109.836939 
C 60.462195 109.427585 59.906913 109.19758 59.327999 109.19758 
C 58.749084 109.19758 58.193803 109.427585 57.784449 109.836939 
C 57.375094 110.246294 57.145089 110.801575 57.145089 111.38049 
C 57.145089 111.959404 57.375094 112.514686 57.784449 112.92404 
C 58.193803 113.333394 58.749084 113.563399 59.327999 113.563399 
z
" style="fill:#4682b4;stroke:#4682b4;"/>
    <path clip-path="url(#p49a7a7abbd)" d="M 44.341473 127.594944 
C 44.828226 127.594944 45.295109 127.401555 45.639295 127.057368 
C 45.983482 126.713182 46.176871 126.246299 46.176871 125.759546 
C 46.176871 125.272792 45.983482 124.80591 45.639295 124.461723 
C 45.295109 124.117536 44.828226 123.924147 44.341473 123.924147 
C 43.854719 123.924147 43.387836 124.117536 43.04365 124.461723 
C 42.699463 124.80591 42.506074 125.272792 42.506074 125.759546 
C 42.506074 126.246299 42.699463 126.713182 43.04365 127.057368 
C 43.387836 127.401555 43.854719 127.594944 44.341473 127.594944 
z
" style="fill:#4682b4;stroke:#4682b4;"/>
    <path clip-path="url(#p49a7a7abbd)" d="M 77.429931 107.674962 
C 78.032142 107.674962 78.60977 107.4357 79.035598 107.009872 
C 79.461426 106.584044 79.700687 106.006417 79.700687 105.404205 
C 79.700687 104.801993 79.461426 104.224366 79.035598 103.798538 
C 78.60977 103.37271 78.032142 103.133448 77.429931 103.133448 
C 76.827719 103.133448 76.250091 103.37271 75.824263 103.798538 
C 75.398435 104.224366 75.159174 104.801993 75.159174 105.404205 
C 75.159174 106.006417 75.398435 106.584044 75.824263 107.009872 
C 76.250091 107.4357 76.827719 107.674962 77.429931 107.674962 
z
" style="fill:#4682b4;stroke:#4682b4;"/>
    <path clip-path="url(#p49a7a7abbd)" d="M 43.733154 148.926147 
C 44.283855 148.926147 44.812076 148.707351 45.20148 148.317946 
C 45.590885 147.928542 45.809681 147.400321 45.809681 146.84962 
C 45.809681 146.298918 45.590885 145.770698 45.20148 145.381293 
C 44.812076 144.991889 44.283855 144.773093 43.733154 144.773093 
C 43.182453 144.773093 42.654232 144.991889 42.264828 145.381293 
C 41.875423 145.770698 41.656627 146.298918 41.656627 146.84962 
C 41.656627 147.400321 41.875423 147.928542 42.264828 148.317946 
C 42.654232 148.707351 43.182453 148.926147 43.733154 148.926147 
z
" style="fill:#4682b4;stroke:#4682b4;"/>
    <path clip-path="url(#p49a7a7abbd)" d="M 100.166792 103.514332 
C 100.866664 103.514332 101.537965 103.23627 102.03285 102.741386 
C 102.527734 102.246502 102.805796 101.5752 102.805796 100.875328 
C 102.805796 100.175456 102.527734 99.504155 102.03285 99.009271 
C 101.537965 98.514386 100.866664 98.236324 100.166792 98.236324 
C 99.46692 98.236324 98.795618 98.514386 98.300734 99.009271 
C 97.80585 99.504155 97.527788 100.175456 97.527788 100.875328 
C 97.527788 101.5752 97.80585 102.246502 98.300734 102.741386 
C 98.795618 103.23627 99.46692 103.514332 100.166792 103.514332 
z
" style="fill:#4682b4;stroke:#4682b4;"/>
    <path clip-path="url(#p49a7a7abbd)" d="M 49.620354 167.67062 
C 50.325259 167.67062 51.001388 167.390558 51.499831 166.892115 
C 51.998275 166.393672 52.278336 165.717543 52.278336 165.012638 
C 52.278336 164.307733 51.998275 163.631604 51.499831 163.133161 
C 51.001388 162.634718 50.325259 162.354656 49.620354 162.354656 
C 48.915449 162.354656 48.23932 162.634718 47.740877 163.133161 
C 47.242434 163.631604 46.962372 164.307733 46.962372 165.012638 
C 46.962372 165.717543 47.242434 166.393672 47.740877 166.892115 
C 48.23932 167.390558 48.915449 167.67062 49.620354 167.67062 
z
" style="fill:#4682b4;stroke:#4682b4;"/>
    <path clip-path="url(#p49a7a7abbd)" d="M 72.291039 171.48074 
C 73.063182 171.48074 73.803804 171.173964 74.349792 170.627976 
C 74.89578 170.081989 75.202555 169.341366 75.202555 168.569223 
C 75.202555 167.79708 74.89578 167.056458 74.349792 166.51047 
C 73.803804 165.964482 73.063182 165.657706 72.291039 165.657706 
C 71.518895 165.657706 70.778273 165.964482 70.232285 166.51047 
C 69.686298 167.056458 69.379522 167.79708 69.379522 168.569223 
C 69.379522 169.341366 69.686298 170.081989 70.232285 170.627976 
C 70.778273 171.173964 71.518895 171.48074 72.291039 171.48074 
z
" style="fill:#4682b4;stroke:#4682b4;"/>
    <path clip-path="url(#p49a7a7abbd)" d="M 87.277565 140.303259 
C 87.984545 140.303259 88.662664 140.022373 89.162574 139.522463 
C 89.662484 139.022552 89.94337 138.344434 89.94337 137.637454 
C 89.94337 136.930474 89.662484 136.252355 89.162574 135.752445 
C 88.662664 135.252534 87.984545 134.971648 87.277565 134.971648 
C 86.570585 134.971648 85.892466 135.252534 85.392556 135.752445 
C 84.892646 136.252355 84.61176 136.930474 84.61176 137.637454 
C 84.61176 138.344434 84.892646 139.022552 85.392556 139.522463 
C 85.892466 140.022373 86.570585 140.303259 87.277565 140.303259 
z
" style="fill:#4682b4;stroke:#4682b4;"/>
    <path clip-path="url(#p49a7a7abbd)" d="M 61.82745 172.265512 
C 62.43961 172.265512 63.026781 172.022298 63.459644 171.589435 
C 63.892506 171.156572 64.13572 170.569402 64.13572 169.957241 
C 64.13572 169.345081 63.892506 168.757911 63.459644 168.325048 
C 63.026781 167.892185 62.43961 167.648971 61.82745 167.648971 
C 61.21529 167.648971 60.628119 167.892185 60.195256 168.325048 
C 59.762394 168.757911 59.51918 169.345081 59.51918 169.957241 
C 59.51918 170.569402 59.762394 171.156572 60.195256 171.589435 
C 60.628119 172.022298 61.21529 172.265512 61.82745 172.265512 
z
" style="fill:#4682b4;stroke:#4682b4;"/>
   </g>
  </g>
 </g>
 <defs>
  <clipPath id="p49a7a7abbd">
   <rect height="209.99952" width="209.99952" x="7.2" y="7.2"/>
  </clipPath>
 </defs>
</svg>
